Coordinates
version=1
nRows=17
nColumns=36
inDegrees=yes

Units are S.I. units (second, meters, Newtons, ...)
If the header above contains a line with 'inDegrees', this indicates whether rotational values are in degrees (yes) or radians (no).

endheader
time	pelvis_tilt	pelvis_list	pelvis_rotation	pelvis_tx	pelvis_ty	pelvis_tz	hip_flexion_r	hip_adduction_r	hip_rotation_r	knee_angle_r	knee_angle_r_beta	ankle_angle_r	subtalar_angle_r	mtp_angle_r	hip_flexion_l	hip_adduction_l	hip_rotation_l	knee_angle_l	knee_angle_l_beta	ankle_angle_l	subtalar_angle_l	mtp_angle_l	lumbar_extension	lumbar_bending	lumbar_rotation	arm_flex_r	arm_add_r	arm_rot_r	elbow_flex_r	pro_sup_r	arm_flex_l	arm_add_l	arm_rot_l	elbow_flex_l	pro_sup_l
      5.80000000	     -5.19561773	      0.58007946	      2.68069639	      1.06091956	      0.90352641	      0.06147963	      1.93059198	     -8.70839802	    -17.32031206	      6.10794278	      0.10660371	      9.34581151	    -13.85300394	     -7.49999987	      2.04195981	     -7.38658567	    -10.99448320	      4.40945439	      0.07695950	     10.00330039	     -6.39238030	     -7.49999987	      1.57519503	      0.02864101	     -1.65941595	     42.20027219	     -5.62778635	     65.55277759	    131.97452221	     95.79529357	     42.83085912	     -3.66114067	     59.45868497	    133.19492491	    100.06347253
      5.81666670	     -4.96513779	      0.63676514	      2.67991780	      1.06117469	      0.90387771	      0.06176271	      1.54619984	     -8.68438317	    -17.19035160	      6.05805253	      0.10573296	      9.63356403	    -13.88847218	     -7.49999987	      1.74556277	     -7.37189744	    -11.07084202	      4.45253988	      0.07771148	      9.95751295	     -6.50584095	     -7.49999987	      1.68388052	     -0.04714096	     -1.83343224	     42.38232853	     -5.46795198	     65.66913382	    131.83772797	     93.96836391	     42.98988815	     -4.04519953	     59.05330104	    133.01052760	     98.35977807
      5.83333330	     -4.86040938	      0.62373244	      2.73801380	      1.06601161	      0.90178950	      0.06416967	      1.30320255	     -8.60970079	    -17.15659932	      6.10783956	      0.10660191	      9.70579192	    -13.90779485	     -7.49999987	      1.57675573	     -7.42518964	    -11.08535544	      4.51075440	      0.07872752	      9.94404362	     -6.52882045	     -7.49999987	      2.06173415	     -0.11022165	     -1.74572591	     42.41444671	     -5.33030893	     65.67007619	    131.86671142	     93.96583381	     43.02278685	     -4.04393855	     59.05742627	    133.06580825	     98.36287854
      5.85000000	     -4.87271902	      0.66286645	      2.73057355	      1.06072020	      0.89899104	      0.06160590	      1.17384275	     -8.57398525	    -17.00418812	      5.95469589	      0.10392905	     10.10103305	    -13.99474320	     -7.49999987	      1.52862224	     -7.40455563	    -11.20616414	      4.49936795	      0.07852878	      9.94159724	     -6.62509677	     -7.49999987	      2.39585266	     -0.06518769	     -1.65339586	     42.77174715	     -5.04936298	     65.54526048	    131.78906320	     93.93877509	     43.54443637	     -3.96949777	     58.91787708	    133.12142893	     98.36081783
      5.86666670	     -4.59519241	      0.70829306	      2.72997686	      1.05976575	      0.90166030	      0.06124418	      0.85272401	     -8.58058542	    -16.76717127	      6.03012814	      0.10524559	     10.53145500	    -13.94500740	     -7.49999987	      1.22134993	     -7.39469549	    -11.34555830	      4.50912764	      0.07869912	      9.84620212	     -6.69892036	     -7.49999987	      2.11248202	      0.00671133	     -1.59255839	     43.47475642	     -5.05127576	     65.65550836	    131.22049350	     92.20284749	     44.29099895	     -4.12760989	     59.02939916	    133.05495704	     96.79095816
      5.88333330	     -4.46154550	      0.74793448	      2.79748137	      1.06023859	      0.90444472	      0.06162846	      0.63468153	     -8.57768516	    -16.75241074	      6.01650716	      0.10500786	     10.80701339	    -13.80084005	     -7.49999987	      1.08103813	     -7.35917221	    -11.28451771	      4.49521596	      0.07845632	      9.84262211	     -6.71752050	     -7.49999987	      2.07534850	     -0.03693612	     -1.77695351	     43.24402517	     -4.92217747	     66.45776824	    131.30756443	     87.63952732	     44.34801920	     -4.54657294	     59.04521649	    132.58959416	     92.11969850
      5.90000000	     -4.36956116	      0.74081418	      2.81756284	      1.06492604	      0.90748890	      0.06378454	      0.44667940	     -8.50119484	    -16.60433074	      6.00359676	      0.10478253	     11.03855258	    -13.69446604	     -7.49999987	      0.95847609	     -7.39482936	    -11.31347153	      4.49746068	      0.07849550	      9.71175646	     -6.75932991	     -7.49999987	      2.10765663	      0.07656379	     -2.18443326	     42.84090539	     -4.28933837	     67.40191328	    130.96358579	     90.61445201	     43.61521903	     -5.42913157	     58.51025594	    132.91042581	     96.77635466
      5.91666670	     -4.29715006	      0.74630242	      2.81254133	      1.06525189	      0.90772699	      0.06407152	      0.28916879	     -8.44290819	    -16.45183677	      5.97296900	      0.10424798	     11.20086292	    -13.61618582	     -7.49999987	      0.82401692	     -7.40736955	    -11.41996047	      4.44264250	      0.07753874	      9.59229981	     -6.71887402	     -7.49999987	      2.21474595	      0.04185000	     -1.93119972	     42.27084506	     -4.22460961	     67.52857525	    130.74370640	     89.74321407	     43.50226386	     -5.75347279	     58.58007887	    132.68847668	     95.65364006
      5.93333330	     -4.20413744	      0.73231715	      2.87941792	      1.06451200	      0.90727556	      0.06374713	      0.07960240	     -8.36634042	    -16.44548251	      5.88663318	      0.10274113	     11.38293277	    -13.44061703	     -7.49999987	      0.69157858	     -7.43221085	    -11.42184322	      4.38349250	      0.07650638	      9.51961324	     -6.67439554	     -7.49999987	      2.20105965	      0.08346370	     -1.86916462	     42.22903573	     -4.28653939	     67.08972642	    130.17618151	     91.59354156	     43.56422213	     -6.01550143	     58.26867348	    132.58420828	     98.16912395
      5.95000000	     -4.17277985	      0.73091365	      2.86809363	      1.06488072	      0.90490483	      0.06407948	     -0.04081305	     -8.31186709	    -16.37161113	      5.79129626	      0.10107719	     11.39360417	    -13.36510073	     -7.49999987	      0.59682387	     -7.43438114	    -11.50600875	      4.30116465	      0.07506948	      9.35901395	     -6.71995222	     -7.49999987	      2.33731118	      0.14655118	     -1.81959422	     42.44359574	     -4.24285114	     66.78234777	    129.92706506	     90.93093840	     43.85121568	     -6.16124657	     57.90229433	    132.50557405	     98.07339579
      5.96666670	     -4.13826217	      0.73552993	      2.85915405	      1.06430318	      0.90960131	      0.06394200	     -0.08635976	     -8.26707061	    -16.32145570	      5.79355086	      0.10111654	     11.41275444	    -13.33425366	     -7.49999987	      0.58029249	     -7.44814180	    -11.54164981	      4.30321880	      0.07510534	      9.27031946	     -6.69169708	     -7.49999987	      2.21554273	      0.14781011	     -1.79195988	     42.25616254	     -4.53060478	     66.95962358	    129.89807836	     90.93675856	     43.72558181	     -6.53111435	     57.84624113	    132.27437778	     98.07179334
      5.98333330	     -4.25657243	      0.71353241	      2.84879472	      1.06481250	      0.90950648	      0.06401348	     -0.02553469	     -8.19720614	    -16.31609303	      5.72881458	      0.09998668	     11.48487109	    -13.18731666	     -7.49999987	      0.64577516	     -7.47800478	    -11.74462679	      4.22486591	      0.07373782	      9.11579224	     -6.61042039	     -7.49999987	      2.52357935	      0.20037607	     -1.71246167	     42.07069871	     -4.76633800	     67.32056672	    129.80038108	     89.78563710	     43.34262164	     -6.60455917	     57.82467029	    131.74906888	     96.86263862
      6.00000000	     -4.22921681	      0.69805666	      2.76931153	      1.06378960	      0.90659789	      0.06361526	     -0.09393386	     -8.13368244	    -16.12107607	      5.63236084	      0.09830324	     11.42005870	    -13.23594966	     -7.49999987	      0.60077603	     -7.49995971	    -11.87644337	      4.19050119	      0.07313804	      8.89458575	     -6.77990300	     -7.49999987	      2.43264947	      0.32199415	     -1.51940168	     42.64303000	     -4.69597198	     66.92319341	    129.53161919	     89.44825198	     43.82405729	     -6.26506973	     57.97307180	    132.17060616	     96.66462986
      6.01666670	     -4.07079156	      0.67079300	      2.83780910	      1.05909602	      0.90603529	      0.06692298	     -0.28119664	     -8.03016327	    -16.32793573	      5.56398123	      0.09710979	     11.51649590	    -13.06054965	     -7.49999987	      0.50206023	     -7.58638256	    -11.91879298	      4.19615972	      0.07323680	      8.84844301	     -6.64830708	     -7.49999987	      2.11323763	      0.35138274	     -1.34491368	     43.43264650	     -4.74040161	     66.45751450	    128.42976856	     89.46440581	     44.87589779	     -6.29164213	     58.88220870	    132.06567778	     96.88651121
      6.03333330	     -4.13766279	      0.67181036	      2.82119558	      1.05858794	      0.91053261	      0.06667034	     -0.18852807	     -7.96868985	    -16.33160679	      5.53538420	      0.09661068	     11.50830106	    -13.04457956	     -7.49999987	      0.63153478	     -7.60841197	    -11.93816538	      4.17806808	      0.07292104	      8.81742624	     -6.64396340	     -7.49999987	      1.85827325	      0.32065570	     -1.29832867	     43.43429089	     -4.86156544	     66.45032737	    128.32399847	     89.46222059	     44.83226364	     -6.38191894	     58.91588688	    132.03083588	     96.89175173
      6.05000000	     -4.10340471	      0.63724323	      2.69597710	      1.05899128	      0.91076228	      0.06695993	     -0.17217667	     -7.87622092	    -16.18008744	      5.51186052	      0.09620011	     11.40084029	    -13.08713590	     -7.49999987	      0.65122918	     -7.67428996	    -12.17221909	      4.21327575	      0.07353553	      8.73001934	     -6.46113244	     -7.49999987	      1.72541714	      0.44366371	     -0.94635767	     43.46410046	     -5.28496027	     66.55113394	    127.83750435	     87.90516180	     44.97606845	     -6.50676556	     59.47923758	    131.90747035	     95.27689432
      6.06666670	     -4.14803795	      0.61359649	      2.71312866	      1.05858191	      0.90526500	      0.06665336	     -0.12166735	     -7.82154076	    -16.47665411	      5.43841571	      0.09491826	     11.57669994	    -12.58479840	     -7.49999987	      0.73539121	     -7.71255098	    -12.18165402	      4.19569081	      0.07322862	      8.66907080	     -6.31799192	     -7.49999987	      1.85893835	      0.46673689	     -0.92634591	     43.85399999	     -5.16715967	     66.50386228	    128.18575436	     87.35294011	     45.56633407	     -6.24556819	     59.52409486	    131.79414446	     94.91324596
